<svg width="50" height="50" viewBox="0 0 50 50" fill="none" xmlns="http://www.w3.org/2000/svg">
<g clip-path="url(#clip0_219_10)">
<path d="M46.875 21.875H28.125V3.125C28.125 1.39912 26.7259 0 25 0C23.2741 0 21.875 1.39912 21.875 3.125V21.875H3.125C1.39912 21.875 0 23.2741 0 25C0 26.7259 1.39912 28.125 3.125 28.125H21.875V46.875C21.875 48.6009 23.2741 50 25 50C26.7259 50 28.125 48.6009 28.125 46.875V28.125H46.875C48.6009 28.125 50 26.7259 50 25C50 23.2741 48.6009 21.875 46.875 21.875Z" fill="white"/>
</g>
<defs>
<clipPath id="clip0_219_10">
<rect width="50" height="50" fill="white"/>
</clipPath>
</defs>
</svg>
