<svg width="50" height="50" viewBox="0 0 50 50" fill="none" xmlns="http://www.w3.org/2000/svg">
<path d="M16.6667 25C23.5604 25 29.1667 19.3937 29.1667 12.5C29.1667 5.60625 23.5604 0 16.6667 0C9.77292 0 4.16667 5.60625 4.16667 12.5C4.16667 19.3937 9.77292 25 16.6667 25ZM47.2833 39.8625L45.2542 38.6917C45.6 37.6562 45.8333 36.5687 45.8333 35.4167C45.8333 34.2646 45.6021 33.1771 45.2542 32.1417L47.2833 30.9708C48.2792 30.3958 48.6208 29.1208 48.0458 28.125C47.4687 27.1271 46.1958 26.7854 45.2 27.3625L43.1729 28.5333C41.7042 26.8792 39.7479 25.6687 37.5 25.2125V22.9187C37.5 21.7688 36.5667 20.8354 35.4167 20.8354C34.2667 20.8354 33.3333 21.7688 33.3333 22.9187V25.2125C31.0854 25.6708 29.1292 26.8812 27.6604 28.5333L25.6333 27.3625C24.6312 26.7854 23.3625 27.1271 22.7875 28.125C22.2125 29.1229 22.5542 30.3958 23.55 30.9708L25.5792 32.1417C25.2333 33.1771 25 34.2646 25 35.4167C25 36.5687 25.2312 37.6562 25.5792 38.6917L23.55 39.8625C22.5542 40.4375 22.2125 41.7125 22.7875 42.7083C23.175 43.3771 23.8729 43.75 24.5937 43.75C24.9458 43.75 25.3042 43.6604 25.6333 43.4708L27.6604 42.3C29.1292 43.9542 31.0854 45.1646 33.3333 45.6208V47.9146C33.3333 49.0646 34.2667 49.9979 35.4167 49.9979C36.5667 49.9979 37.5 49.0646 37.5 47.9146V45.6208C39.7479 45.1625 41.7042 43.9521 43.1729 42.3L45.2 43.4708C45.5292 43.6604 45.8875 43.75 46.2396 43.75C46.9604 43.75 47.6604 43.3771 48.0458 42.7083C48.6208 41.7104 48.2792 40.4375 47.2833 39.8625ZM35.4167 38.5417C33.6937 38.5417 32.2917 37.1396 32.2917 35.4167C32.2917 33.6937 33.6937 32.2917 35.4167 32.2917C37.1396 32.2917 38.5417 33.6937 38.5417 35.4167C38.5417 37.1396 37.1396 38.5417 35.4167 38.5417ZM17.7083 35.4167C17.7083 34.2729 17.8229 33.1125 18.0521 31.9625C18.1896 31.2687 17.9646 30.5542 17.4583 30.0625C16.9521 29.5708 16.2312 29.3708 15.5417 29.5271C6.68125 31.5604 0 39.4667 0 47.9167C0 49.0667 0.933333 50 2.08333 50H20.0771C20.8812 50 21.6146 49.5375 21.9583 48.8104C22.3042 48.0833 22.2 47.2229 21.6917 46.6C19.1229 43.4521 17.7083 39.4812 17.7083 35.4167Z" fill="white"/>
</svg>
