<svg width="70" height="40" viewBox="0 0 70 40" fill="none" xmlns="http://www.w3.org/2000/svg">
<path d="M67.0833 10H63.8721C62.5158 4.3025 56.6242 0 49.5833 0H14.5833C6.54208 0 0 5.6075 0 12.5V27.5C0 34.3925 6.54208 40 14.5833 40H49.5833C56.6242 40 62.5188 35.6975 63.8721 30H67.0833C68.6933 30 70 28.88 70 27.5V12.5C70 11.12 68.6933 10 67.0833 10ZM49.5833 35H14.5833C9.75917 35 5.83333 31.635 5.83333 27.5V12.5C5.83333 8.365 9.75917 5 14.5833 5H49.5833C54.4075 5 58.3333 8.365 58.3333 12.5V27.5C58.3333 31.635 54.4075 35 49.5833 35ZM49.5833 10H14.5833C12.9704 10 11.6667 11.12 11.6667 12.5V27.5C11.6667 28.88 12.9704 30 14.5833 30H49.5833C51.1963 30 52.5 28.88 52.5 27.5V12.5C52.5 11.12 51.1963 10 49.5833 10Z" fill="#2E2F3A"/>
</svg>
