<svg width="50" height="50" viewBox="0 0 50 50" fill="none" xmlns="http://www.w3.org/2000/svg">
<g clip-path="url(#clip0_18_213)">
<path d="M25 50C11.2146 50 0 38.7854 0 25C0 11.2146 11.2146 0 25 0C38.7854 0 50 11.2146 50 25C50 38.7854 38.7854 50 25 50ZM25 4.16667C13.5125 4.16667 4.16667 13.5125 4.16667 25C4.16667 36.4875 13.5125 45.8333 25 45.8333C36.4875 45.8333 45.8333 36.4875 45.8333 25C45.8333 13.5125 36.4875 4.16667 25 4.16667ZM25 41.6667C15.8104 41.6667 8.33333 34.1896 8.33333 25C8.33333 15.8104 15.8104 8.33333 25 8.33333C34.1896 8.33333 41.6667 15.8104 41.6667 25C41.6667 34.1896 34.1896 41.6667 25 41.6667ZM25 12.5C18.1062 12.5 12.5 18.1062 12.5 25C12.5 31.8937 18.1062 37.5 25 37.5C31.8937 37.5 37.5 31.8937 37.5 25C37.5 18.1062 31.8937 12.5 25 12.5ZM25 33.3333C20.4042 33.3333 16.6667 29.5958 16.6667 25C16.6667 20.4042 20.4042 16.6667 25 16.6667C29.5958 16.6667 33.3333 20.4042 33.3333 25C33.3333 29.5958 29.5958 33.3333 25 33.3333ZM25 20.8333C22.7021 20.8333 20.8333 22.7021 20.8333 25C20.8333 27.2979 22.7021 29.1667 25 29.1667C27.2979 29.1667 29.1667 27.2979 29.1667 25C29.1667 22.7021 27.2979 20.8333 25 20.8333Z" fill="white"/>
</g>
<defs>
<clipPath id="clip0_18_213">
<rect width="50" height="50" fill="white"/>
</clipPath>
</defs>
</svg>
