<svg width="62" height="62" viewBox="0 0 62 62" fill="none" xmlns="http://www.w3.org/2000/svg">
<g clip-path="url(#clip0_167_5)">
<path d="M49.0833 10.3333H47.771L42.129 3.01733C41.4019 2.08167 40.4713 1.32374 39.4079 0.800973C38.3444 0.278203 37.176 0.0042962 35.991 0L26.009 0C24.824 0.0042962 23.6556 0.278203 22.5921 0.800973C21.5287 1.32374 20.5981 2.08167 19.871 3.01733L14.229 10.3333H12.9167C9.49221 10.3374 6.20919 11.6996 3.78773 14.1211C1.36628 16.5425 0.00410197 19.8255 0 23.25L0 49.0833C0.00410197 52.5078 1.36628 55.7908 3.78773 58.2123C6.20919 60.6337 9.49221 61.9959 12.9167 62H49.0833C52.5078 61.9959 55.7908 60.6337 58.2123 58.2123C60.6337 55.7908 61.9959 52.5078 62 49.0833V23.25C61.9959 19.8255 60.6337 16.5425 58.2123 14.1211C55.7908 11.6996 52.5078 10.3374 49.0833 10.3333ZM23.963 6.17417C24.205 5.86172 24.515 5.60858 24.8696 5.434C25.2241 5.25941 25.6138 5.16798 26.009 5.16667H35.991C36.3861 5.16837 36.7757 5.25996 37.1302 5.43452C37.4846 5.60907 37.7948 5.86201 38.037 6.17417L41.2455 10.3333H20.7545L23.963 6.17417ZM56.8333 49.0833C56.8333 51.1388 56.0168 53.11 54.5634 54.5634C53.11 56.0168 51.1388 56.8333 49.0833 56.8333H12.9167C10.8612 56.8333 8.89 56.0168 7.43659 54.5634C5.98318 53.11 5.16667 51.1388 5.16667 49.0833V23.25C5.16667 21.1946 5.98318 19.2233 7.43659 17.7699C8.89 16.3165 10.8612 15.5 12.9167 15.5H49.0833C51.1388 15.5 53.11 16.3165 54.5634 17.7699C56.0168 19.2233 56.8333 21.1946 56.8333 23.25V49.0833Z" fill="black"/>
<path d="M31 20.6667C27.9344 20.6667 24.9376 21.5757 22.3887 23.2789C19.8397 24.9821 17.853 27.4028 16.6799 30.2351C15.5067 33.0673 15.1998 36.1839 15.7978 39.1906C16.3959 42.1973 17.8721 44.9591 20.0399 47.1268C22.2076 49.2946 24.9694 50.7708 27.9761 51.3689C30.9828 51.9669 34.0993 51.66 36.9316 50.4868C39.7639 49.3137 42.1846 47.327 43.8878 44.778C45.5909 42.2291 46.5 39.2323 46.5 36.1667C46.4959 32.0571 44.8616 28.117 41.9556 25.2111C39.0497 22.3051 35.1096 20.6708 31 20.6667ZM31 46.5C28.9563 46.5 26.9584 45.894 25.2591 44.7585C23.5598 43.6231 22.2354 42.0093 21.4533 40.1211C20.6711 38.2329 20.4665 36.1552 20.8652 34.1508C21.2639 32.1463 22.2481 30.3051 23.6932 28.8599C25.1384 27.4148 26.9796 26.4306 28.9841 26.0319C30.9885 25.6332 33.0662 25.8378 34.9544 26.6199C36.8426 27.402 38.4564 28.7265 39.5919 30.4258C40.7273 32.1251 41.3333 34.1229 41.3333 36.1667C41.3333 38.9073 40.2447 41.5356 38.3068 43.4735C36.3689 45.4113 33.7406 46.5 31 46.5Z" fill="black"/>
</g>
<defs>
<clipPath id="clip0_167_5">
<rect width="62" height="62" fill="white"/>
</clipPath>
</defs>
</svg>
