<svg width="35" height="35" viewBox="0 0 35 35" fill="none" xmlns="http://www.w3.org/2000/svg">
<g clip-path="url(#clip0_13_63)">
<path d="M28.4375 0H6.5625C4.82261 0.00193 3.15453 0.693954 1.92424 1.92424C0.693954 3.15453 0.00193 4.82261 0 6.5625L0 28.4375C0.00193 30.1774 0.693954 31.8455 1.92424 33.0758C3.15453 34.306 4.82261 34.9981 6.5625 35H28.4375C30.1774 34.9981 31.8455 34.306 33.0758 33.0758C34.306 31.8455 34.9981 30.1774 35 28.4375V6.5625C34.9981 4.82261 34.306 3.15453 33.0758 1.92424C31.8455 0.693954 30.1774 0.00193 28.4375 0ZM6.5625 4.375H28.4375C29.0177 4.375 29.5741 4.60547 29.9843 5.0157C30.3945 5.42594 30.625 5.98234 30.625 6.5625V28.4375C30.6254 28.7248 30.5689 29.0093 30.4588 29.2746C30.3486 29.5399 30.187 29.7808 29.9833 29.9833L17.2492 17.2492C16.1553 16.1556 14.6718 15.5412 13.125 15.5412C11.5782 15.5412 10.0947 16.1556 9.00083 17.2492L4.375 21.875V6.5625C4.375 5.98234 4.60547 5.42594 5.0157 5.0157C5.42594 4.60547 5.98234 4.375 6.5625 4.375Z" fill="black"/>
<path d="M22.6042 14.5834C24.6177 14.5834 26.25 12.9511 26.25 10.9375C26.25 8.92398 24.6177 7.29169 22.6042 7.29169C20.5906 7.29169 18.9583 8.92398 18.9583 10.9375C18.9583 12.9511 20.5906 14.5834 22.6042 14.5834Z" fill="black"/>
</g>
<defs>
<clipPath id="clip0_13_63">
<rect width="35" height="35" fill="white"/>
</clipPath>
</defs>
</svg>
