<svg width="50" height="50" viewBox="0 0 50 50" fill="none" xmlns="http://www.w3.org/2000/svg">
<g clip-path="url(#clip0_219_2)">
<path d="M29.4187 25.0002L49.0846 5.33643C50.3054 4.11568 50.3054 2.13646 49.0846 0.915807C47.8639 -0.304944 45.8847 -0.304944 44.664 0.915807L25.0002 20.5816L5.33643 0.915807C4.11568 -0.304944 2.13647 -0.304944 0.915815 0.915807C-0.304838 2.13656 -0.304936 4.11577 0.915815 5.33643L20.5816 25.0002L0.915815 44.664C-0.304936 45.8848 -0.304936 47.864 0.915815 49.0846C2.13657 50.3053 4.11578 50.3054 5.33643 49.0846L25.0002 29.4187L44.6639 49.0846C45.8847 50.3054 47.8639 50.3054 49.0845 49.0846C50.3053 47.8639 50.3053 45.8847 49.0845 44.664L29.4187 25.0002Z" fill="black"/>
</g>
<defs>
<clipPath id="clip0_219_2">
<rect width="50" height="50" fill="white"/>
</clipPath>
</defs>
</svg>
