<svg width="50" height="50" viewBox="0 0 50 50" fill="none" xmlns="http://www.w3.org/2000/svg">
<g clip-path="url(#clip0_18_211)">
<path d="M16.6667 25C23.5604 25 29.1667 19.3937 29.1667 12.5C29.1667 5.60625 23.5604 0 16.6667 0C9.77292 0 4.16667 5.60625 4.16667 12.5C4.16667 19.3937 9.77292 25 16.6667 25ZM16.6667 6.25C20.1125 6.25 22.9167 9.05417 22.9167 12.5C22.9167 15.9458 20.1125 18.75 16.6667 18.75C13.2208 18.75 10.4167 15.9458 10.4167 12.5C10.4167 9.05417 13.2208 6.25 16.6667 6.25ZM22.8833 32.8854C22.6375 34.5917 21.0646 35.7854 19.3458 35.5333C18.8083 35.4562 18.2583 35.4167 17.7083 35.4167C11.3917 35.4167 6.25 40.5583 6.25 46.875C6.25 48.6 4.85 50 3.125 50C1.4 50 0 48.6 0 46.875C0 37.1104 7.94375 29.1667 17.7083 29.1667C18.5521 29.1667 19.4021 29.2271 20.2375 29.3479C21.9437 29.5917 23.1292 31.1771 22.8833 32.8854ZM47.8625 39.5292L42.9083 44.8396C42.2917 45.4979 41.4583 45.8333 40.6229 45.8333C39.8583 45.8333 39.0937 45.5542 38.4917 44.9937C37.2312 43.8167 37.1604 41.8375 38.3396 40.5771L41.2104 37.5H35.4146C33.1167 37.5 31.2479 39.3687 31.2479 41.6667V46.875C31.2479 48.6 29.8479 50 28.1229 50C26.3979 50 24.9979 48.6 24.9979 46.875V41.6667C24.9979 35.9229 29.6708 31.25 35.4146 31.25H41.2125L38.3396 28.1729C37.1625 26.9125 37.2312 24.9333 38.4917 23.7562C39.75 22.5812 41.7292 22.6479 42.9083 23.9083L47.9375 29.2958C50.7042 32.0604 50.7042 36.6875 47.8625 39.5292Z" fill="white"/>
</g>
<defs>
<clipPath id="clip0_18_211">
<rect width="50" height="50" fill="white"/>
</clipPath>
</defs>
</svg>
