<svg width="25" height="25" viewBox="0 0 25 25" fill="none" xmlns="http://www.w3.org/2000/svg">
<g clip-path="url(#clip0_17_142)">
<path d="M11.3135 14.1813L10.2135 14.8459C9.66788 14.3638 9.02743 14.0012 8.33333 13.7813V12.5H5.20833V13.7813C4.51608 14.0018 3.87747 14.3644 3.33333 14.8459L2.23333 14.1813L0.6125 16.8573L1.70937 17.5188C1.51355 18.3279 1.51355 19.1721 1.70937 19.9813L0.6125 20.6427L2.22812 23.3188L3.33333 22.6542C3.87747 23.1356 4.51608 23.4982 5.20833 23.7188V25H8.33333V23.7188C9.02559 23.4982 9.6642 23.1356 10.2083 22.6542L11.3083 23.3188L12.924 20.6427L11.8271 19.9813C12.0229 19.1721 12.0229 18.3279 11.8271 17.5188L12.924 16.8573L11.3135 14.1813ZM6.77083 20.8334C6.35879 20.8334 5.956 20.7112 5.6134 20.4822C5.27079 20.2533 5.00377 19.928 4.84608 19.5473C4.6884 19.1666 4.64714 18.7477 4.72753 18.3436C4.80792 17.9395 5.00633 17.5682 5.29769 17.2769C5.58905 16.9855 5.96027 16.7871 6.36439 16.7067C6.76852 16.6263 7.18741 16.6676 7.56809 16.8253C7.94877 16.983 8.27414 17.25 8.50306 17.5926C8.73198 17.9352 8.85417 18.338 8.85417 18.75C8.85417 19.3026 8.63467 19.8325 8.24397 20.2232C7.85327 20.6139 7.32337 20.8334 6.77083 20.8334ZM25 10.9375C25 9.97058 24.6159 9.04325 23.9322 8.35953C23.2484 7.6758 22.3211 7.29169 21.3542 7.29169H20.8333V4.16669H17.7083V7.29169H15.9531L12.4667 1.71356C12.1404 1.18783 11.685 0.754361 11.1438 0.454418C10.6027 0.154475 9.99373 -0.00195563 9.375 1.84548e-05H3.125V7.32919C2.25731 7.45443 1.46381 7.88813 0.889877 8.55083C0.315946 9.21353 2.54526e-05 10.0608 0 10.9375L0 13.2511C0.854867 12.2774 1.92481 11.5163 3.125 11.0281V10.9375C3.125 10.7994 3.17987 10.6669 3.27755 10.5692C3.37522 10.4716 3.5077 10.4167 3.64583 10.4167H21.3542C21.4923 10.4167 21.6248 10.4716 21.7225 10.5692C21.8201 10.6669 21.875 10.7994 21.875 10.9375V13.0938L20.2313 15.7292C19.1471 15.5006 18.017 15.6628 17.0409 16.187C16.0647 16.7112 15.3054 17.5637 14.8971 18.5938C14.4889 19.6238 14.458 20.765 14.8099 21.8157C15.1619 22.8663 15.874 23.7586 16.8204 24.3348C17.7668 24.9111 18.8864 25.1341 19.9813 24.9645C21.0763 24.7949 22.076 24.2436 22.8037 23.4081C23.5314 22.5725 23.9402 21.5066 23.9578 20.3987C23.9754 19.2909 23.6007 18.2125 22.9 17.3542L25 13.9896V10.9375ZM6.25 7.29169V3.12502H9.375C9.46334 3.12502 9.55022 3.14749 9.62748 3.19031C9.70475 3.23313 9.76985 3.2949 9.81667 3.36981L12.2677 7.29169H6.25ZM19.2708 21.875C18.9618 21.875 18.6597 21.7834 18.4028 21.6117C18.1458 21.44 17.9455 21.196 17.8273 20.9105C17.709 20.625 17.6781 20.3108 17.7384 20.0077C17.7986 19.7046 17.9475 19.4262 18.166 19.2077C18.3845 18.9891 18.6629 18.8403 18.966 18.78C19.2691 18.7198 19.5833 18.7507 19.8688 18.869C20.1543 18.9872 20.3983 19.1875 20.57 19.4444C20.7417 19.7014 20.8333 20.0035 20.8333 20.3125C20.8333 20.7269 20.6687 21.1243 20.3757 21.4174C20.0827 21.7104 19.6852 21.875 19.2708 21.875Z" fill="black"/>
</g>
<defs>
<clipPath id="clip0_17_142">
<rect width="25" height="25" fill="white"/>
</clipPath>
</defs>
</svg>
