<svg width="50" height="50" viewBox="0 0 50 50" fill="none" xmlns="http://www.w3.org/2000/svg">
<g clip-path="url(#clip0_43_112)">
<path d="M45.8333 2.08337H20.9104V8.33337H16.6667V2.08337H12.5V8.33337H8.25625V2.08337H4.16667C3.0616 2.08337 2.00179 2.52236 1.22039 3.30376C0.438987 4.08516 0 5.14497 0 6.25004L0 10.4167C0 11.5218 0.438987 12.5816 1.22039 13.363C2.00179 14.1444 3.0616 14.5834 4.16667 14.5834H45.8333C46.9384 14.5834 47.9982 14.1444 48.7796 13.363C49.561 12.5816 50 11.5218 50 10.4167V6.25004C50 5.14497 49.561 4.08516 48.7796 3.30376C47.9982 2.52236 46.9384 2.08337 45.8333 2.08337Z" fill="black"/>
<path d="M45.8333 18.75H20.9104V25H16.6667V18.75H12.5V25H8.25625V18.75H4.16667C3.0616 18.75 2.00179 19.189 1.22039 19.9704C0.438987 20.7518 0 21.8116 0 22.9167L0 27.0833C0 28.1884 0.438987 29.2482 1.22039 30.0296C2.00179 30.811 3.0616 31.25 4.16667 31.25H45.8333C46.9384 31.25 47.9982 30.811 48.7796 30.0296C49.561 29.2482 50 28.1884 50 27.0833V22.9167C50 21.8116 49.561 20.7518 48.7796 19.9704C47.9982 19.189 46.9384 18.75 45.8333 18.75Z" fill="black"/>
<path d="M45.8333 35.4166H20.9104V41.6666H16.6667V35.4166H12.5V41.6666H8.25625V35.4166H4.16667C3.0616 35.4166 2.00179 35.8556 1.22039 36.637C0.438987 37.4184 0 38.4782 0 39.5833L0 43.75C0 44.855 0.438987 45.9148 1.22039 46.6962C2.00179 47.4776 3.0616 47.9166 4.16667 47.9166H45.8333C46.9384 47.9166 47.9982 47.4776 48.7796 46.6962C49.561 45.9148 50 44.855 50 43.75V39.5833C50 38.4782 49.561 37.4184 48.7796 36.637C47.9982 35.8556 46.9384 35.4166 45.8333 35.4166Z" fill="black"/>
</g>
<defs>
<clipPath id="clip0_43_112">
<rect width="50" height="50" fill="white"/>
</clipPath>
</defs>
</svg>
