<svg width="35" height="35" viewBox="0 0 35 35" fill="none" xmlns="http://www.w3.org/2000/svg">
<g clip-path="url(#clip0_138_4)">
<path d="M1.45994 6.92815H5.44954C6.23696 9.82534 9.2239 11.5357 12.1211 10.7482C13.9819 10.2425 15.4354 8.78891 15.9412 6.92815H33.54C34.3454 6.92815 34.9982 6.27531 34.9982 5.46998C34.9982 4.66465 34.3454 4.01182 33.54 4.01182H15.9412C15.1538 1.11456 12.1668 -0.595762 9.26963 0.19166C7.40886 0.6974 5.95528 2.15099 5.44954 4.01175H1.45994C0.654605 4.01175 0.00177002 4.66458 0.00177002 5.46991C0.00177002 6.27524 0.654605 6.92815 1.45994 6.92815Z" fill="#747474"/>
<path d="M33.54 16.0418H29.5504C28.7646 13.145 25.7793 11.4338 22.8825 12.2195C21.0203 12.7247 19.5654 14.1795 19.0602 16.0418H1.45994C0.654605 16.0418 0.00177002 16.6946 0.00177002 17.5C0.00177002 18.3053 0.654605 18.9581 1.45994 18.9581H19.0602C19.8461 21.8549 22.8314 23.5662 25.7282 22.7804C27.5904 22.2752 29.0452 20.8205 29.5504 18.9581H33.54C34.3454 18.9581 34.9982 18.3053 34.9982 17.5C34.9982 16.6946 34.3454 16.0418 33.54 16.0418Z" fill="#747474"/>
<path d="M33.54 28.0719H15.9412C15.1538 25.1747 12.1668 23.4644 9.26963 24.2518C7.40886 24.7575 5.95528 26.2111 5.44954 28.0719H1.45994C0.654605 28.0719 0.00177002 28.7247 0.00177002 29.53C0.00177002 30.3354 0.654605 30.9882 1.45994 30.9882H5.44954C6.23696 33.8854 9.2239 35.5957 12.1211 34.8083C13.9819 34.3025 15.4354 32.849 15.9412 30.9882H33.54C34.3454 30.9882 34.9982 30.3354 34.9982 29.53C34.9982 28.7247 34.3454 28.0719 33.54 28.0719Z" fill="#747474"/>
</g>
<defs>
<clipPath id="clip0_138_4">
<rect width="35" height="35" fill="white"/>
</clipPath>
</defs>
</svg>
