<svg width="62" height="62" viewBox="0 0 62 62" fill="none" xmlns="http://www.w3.org/2000/svg">
<g clip-path="url(#clip0_13_76)">
<path d="M31 0.108521C24.1644 0.116041 17.6108 2.83465 12.777 7.66795C7.94323 12.5012 5.22396 19.0545 5.21576 25.8902C5.21576 32.5294 10.3566 42.9195 20.4962 56.7714C21.7033 58.425 23.2837 59.7703 25.109 60.6978C26.9342 61.6252 28.9527 62.1086 31 62.1086C33.0474 62.1086 35.0658 61.6252 36.891 60.6978C38.7163 59.7703 40.2968 58.425 41.5038 56.7714C51.6434 42.9195 56.7843 32.5294 56.7843 25.8902C56.7761 19.0545 54.0568 12.5012 49.223 7.66795C44.3892 2.83465 37.8357 0.116041 31 0.108521ZM31 36.1667C28.9563 36.1667 26.9584 35.5606 25.2591 34.4252C23.5598 33.2898 22.2354 31.6759 21.4533 29.7878C20.6711 27.8996 20.4665 25.8219 20.8652 23.8174C21.2639 21.813 22.2481 19.9717 23.6932 18.5266C25.1384 17.0814 26.9796 16.0973 28.9841 15.6986C30.9885 15.2999 33.0662 15.5045 34.9544 16.2866C36.8426 17.0687 38.4564 18.3932 39.5919 20.0925C40.7273 21.7918 41.3333 23.7896 41.3333 25.8334C41.3333 28.5739 40.2447 31.2023 38.3068 33.1401C36.3689 35.078 33.7406 36.1667 31 36.1667Z" fill="#4CA522"/>
</g>
<defs>
<clipPath id="clip0_13_76">
<rect width="62" height="62" fill="white"/>
</clipPath>
</defs>
</svg>
