<svg width="64" height="64" viewBox="0 0 64 64" fill="none" xmlns="http://www.w3.org/2000/svg">
<g clip-path="url(#clip0_17_127)">
<path d="M62.2429 58.5902L52.6019 48.9492C63.1445 37.8306 62.9921 20.2226 52.093 9.32347C46.7249 3.95789 39.5897 0.999974 31.9999 0.999974C24.6632 0.999974 17.7683 3.78481 12.4673 8.81456L5.4096 1.75689C4.39952 0.746808 2.76685 0.746808 1.75677 1.75689C0.746686 2.76697 0.746686 4.39964 1.75677 5.40972L58.5901 62.2431C59.0939 62.7468 59.7552 63 60.4165 63C61.0779 63 61.7392 62.7468 62.2429 62.2431C63.253 61.233 63.253 59.6003 62.2429 58.5902ZM31.9999 19.0833C37.6987 19.0833 42.3332 23.7178 42.3332 29.4166C42.3332 31.9509 41.4135 34.3121 39.8119 36.1591L36.1203 32.4676C36.7687 31.5944 37.1639 30.5481 37.1639 29.4141C37.1639 26.5646 34.8467 24.2474 31.9973 24.2474C30.8813 24.2474 29.804 24.6142 28.9231 25.2704L25.2858 21.6331C27.1509 20.0288 29.5121 19.0833 31.9999 19.0833ZM43.1573 54.1133C43.6533 54.6093 43.9271 55.2887 43.9142 55.994C43.8987 56.6941 43.599 57.3631 43.0824 57.8411L41.7778 59.0449C39.1919 61.5766 35.6966 63.0026 31.9973 63.0026C28.2979 63.0026 24.8053 61.5766 22.1625 58.9906L11.979 49.5821C4.48219 42.0853 1.7671 31.2172 4.8206 21.15C5.0841 20.2794 5.78419 19.6129 6.6651 19.3933C7.54602 19.1686 8.4786 19.4321 9.11927 20.0727L43.1573 54.1133Z" fill="#474747"/>
</g>
<path d="M61 61L3 3" stroke="#9E0000" stroke-width="6" stroke-linecap="round"/>
<defs>
<clipPath id="clip0_17_127">
<rect width="62" height="62" fill="white" transform="translate(1 1)"/>
</clipPath>
</defs>
</svg>
