<svg width="60" height="60" viewBox="0 0 60 60" fill="none" xmlns="http://www.w3.org/2000/svg">
<path d="M57.4375 21.7349L39.7226 4.01986C34.3489 -1.33995 25.6512 -1.33995 20.2775 4.01986L2.56257 21.7349C0.916322 23.3724 -0.00641176 25.6003 3.35398e-05 27.9224V53.8674C0.00554135 57.2541 2.75101 59.9972 6.1376 60H53.8625C57.2491 59.9973 59.9945 57.2541 60 53.8674V27.9224C60.0065 25.6003 59.0838 23.3724 57.4375 21.7349ZM52.5 52.5H40.0001V44.5449C40.0001 39.2733 35.7266 34.9999 30.455 34.9999H29.5451C24.2735 34.9999 20 39.2733 20 44.5449V52.5H7.50002V27.9224C7.50085 27.5909 7.63186 27.2731 7.86506 27.0374L25.58 9.32238C28.0205 6.88124 31.9778 6.88077 34.4189 9.3212C34.4192 9.32156 34.4197 9.32202 34.4201 9.32238L52.135 27.0374C52.3681 27.2731 52.4993 27.5909 52.5001 27.9224V52.5H52.5Z" fill="white"/>
</svg>
