<svg width="50" height="50" viewBox="0 0 50 50" fill="none" xmlns="http://www.w3.org/2000/svg">
<g clip-path="url(#clip0_235_4)">
<path d="M50 25C50 20.0555 48.5338 15.222 45.7867 11.1108C43.0397 6.99953 39.1352 3.79521 34.5671 1.90302C29.9989 0.0108322 24.9723 -0.484251 20.1228 0.480379C15.2732 1.44501 10.8187 3.82603 7.32234 7.32234C3.82603 10.8187 1.44501 15.2732 0.480379 20.1228C-0.484251 24.9723 0.0108322 29.9989 1.90302 34.5671C3.79521 39.1352 6.99953 43.0397 11.1108 45.7867C15.222 48.5338 20.0555 50 25 50C31.6282 49.9928 37.9829 47.3566 42.6698 42.6698C47.3566 37.9829 49.9928 31.6282 50 25ZM16.6667 25C16.6651 23.475 17.2225 22.0023 18.2333 20.8604C18.8396 20.1792 19.4292 19.5333 19.8521 19.1104L25.7354 13.125C26.1275 12.7567 26.6469 12.5543 27.1848 12.5602C27.7227 12.5661 28.2375 12.7799 28.6214 13.1568C29.0053 13.5336 29.2285 14.0444 29.2443 14.5821C29.2601 15.1199 29.0673 15.6429 28.7063 16.0417L22.8125 22.0417C22.4229 22.4333 21.8938 23.0167 21.3542 23.6229C21.0185 24.0035 20.8332 24.4936 20.8332 25.0011C20.8332 25.5085 21.0185 25.9986 21.3542 26.3792C21.8917 26.9833 22.4208 27.5667 22.7979 27.9458L28.7063 33.9583C29.0673 34.3571 29.2601 34.8801 29.2443 35.4179C29.2285 35.9556 29.0053 36.4664 28.6214 36.8433C28.2375 37.2202 27.7227 37.4339 27.1848 37.4398C26.6469 37.4458 26.1275 37.2434 25.7354 36.875L19.8417 30.8792C19.425 30.4625 18.8417 29.8229 18.2396 29.1438C17.225 28.0021 16.6652 26.5274 16.6667 25Z" fill="black"/>
</g>
<defs>
<clipPath id="clip0_235_4">
<rect width="50" height="50" fill="white"/>
</clipPath>
</defs>
</svg>
