<svg width="50" height="50" viewBox="0 0 50 50" fill="none" xmlns="http://www.w3.org/2000/svg">
<path d="M39.5833 17.55V14.5833C39.5833 6.5292 33.0542 0 25 0C16.9458 0 10.4167 6.5292 10.4167 14.5833V17.55C6.6251 19.2048 4.17217 22.9464 4.1667 27.0833V39.5833C4.17353 45.3334 8.8332 49.9932 14.5833 50H35.4166C41.1667 49.9932 45.8264 45.3334 45.8333 39.5833V27.0833C45.8279 22.9464 43.3749 19.2048 39.5833 17.55ZM27.0833 35.4167C27.0833 36.5673 26.1506 37.5 25 37.5C23.8494 37.5 22.9167 36.5673 22.9167 35.4167V31.25C22.9167 30.0994 23.8494 29.1667 25 29.1667C26.1506 29.1667 27.0833 30.0994 27.0833 31.25V35.4167ZM35.4167 16.6667H14.5833V14.5834C14.5833 8.83047 19.247 4.1667 25 4.1667C30.753 4.1667 35.4167 8.83037 35.4167 14.5834V16.6667Z" fill="white"/>
</svg>
