<svg width="25" height="25" viewBox="0 0 25 25" fill="none" xmlns="http://www.w3.org/2000/svg">
<g clip-path="url(#clip0_138_31)">
<path d="M12.5 19.6229C11.9042 19.6229 11.3094 19.4635 10.7781 19.1447L0.505192 12.9812C0.0114424 12.6854 -0.147933 12.0458 0.147901 11.552C0.442692 11.0572 1.08228 10.8989 1.57707 11.1947L11.8489 17.3583C12.25 17.5979 12.7489 17.5979 13.15 17.3583L23.4219 11.1947C23.9156 10.8989 24.5552 11.0583 24.851 11.552C25.1469 12.0458 24.9875 12.6854 24.4937 12.9812L14.2219 19.1447C13.6906 19.4635 13.0948 19.6229 12.5 19.6229ZM14.2219 23.6187L24.4937 17.4552C24.9875 17.1593 25.1469 16.5197 24.851 16.026C24.5552 15.5322 23.9156 15.3729 23.4219 15.6687L13.1489 21.8322C12.7489 22.0718 12.25 22.0718 11.8489 21.8322L1.57811 15.6687C1.08332 15.3718 0.443734 15.5322 0.148942 16.026C-0.146891 16.5197 0.012484 17.1593 0.506234 17.4552L10.7781 23.6187C11.3094 23.9385 11.9052 24.0968 12.501 24.0968C13.0969 24.0968 13.6927 23.9385 14.2229 23.6187H14.2219ZM12.5 6.07703L18.0292 2.75933L14.2219 0.474951C13.1594 -0.162549 11.8396 -0.162549 10.7771 0.474951L6.96978 2.75933L12.4989 6.07703H12.5ZM24.4948 6.63849L20.0542 3.97391L14.525 7.29162L20.4542 10.8489L24.4948 8.42495C24.8083 8.23641 25 7.89787 25 7.53224C25 7.16662 24.8083 6.82599 24.4948 6.63849ZM10.475 7.29162L4.94582 3.97391L0.505192 6.63849C0.191651 6.82703 -1.59843e-05 7.16558 -1.59843e-05 7.5312C-1.59843e-05 7.89683 0.191651 8.23641 0.505192 8.42391L4.54582 10.8479L10.475 7.29162ZM12.5 8.5062L6.57082 12.0635L10.7781 14.5875C11.3094 14.9062 11.9042 15.0656 12.5 15.0656C13.0958 15.0656 13.6906 14.9062 14.2219 14.5875L18.4291 12.0635L12.5 8.5062Z" fill="#747474"/>
</g>
<defs>
<clipPath id="clip0_138_31">
<rect width="25" height="25" fill="white"/>
</clipPath>
</defs>
</svg>
