<svg width="35" height="35" viewBox="0 0 35 35" fill="none" xmlns="http://www.w3.org/2000/svg">
<g clip-path="url(#clip0_13_72)">
<path d="M29.8842 11.6215L15.9746 1.42187C14.8882 0.626325 13.6027 0.147157 12.2606 0.0374765C10.9185 -0.0722039 9.57229 0.191888 8.37111 0.800478C7.16994 1.40907 6.16075 2.33839 5.4554 3.48542C4.75006 4.63245 4.37611 5.9524 4.37501 7.29895V27.7083C4.37291 29.0562 4.74491 30.3782 5.44958 31.5272C6.15426 32.6762 7.16396 33.6071 8.36631 34.2163C9.56866 34.8255 10.9165 35.089 12.2597 34.9777C13.603 34.8663 14.889 34.3843 15.9746 33.5854L29.8842 23.3858C30.8071 22.7085 31.5576 21.8234 32.0749 20.8021C32.5922 19.7808 32.8618 18.6521 32.8618 17.5073C32.8618 16.3625 32.5922 15.2337 32.0749 14.2125C31.5576 13.1912 30.8071 12.3061 29.8842 11.6287V11.6215Z" fill="black"/>
</g>
<defs>
<clipPath id="clip0_13_72">
<rect width="35" height="35" fill="white"/>
</clipPath>
</defs>
</svg>
