<svg width="30" height="30" viewBox="0 0 30 30" fill="none" xmlns="http://www.w3.org/2000/svg">
<g clip-path="url(#clip0_17_135)">
<path d="M25.71 1.38124C22.7688 -0.496259 18.9675 -0.483759 16.0263 1.40874C14.6688 2.28124 13.6063 3.42624 12.8713 4.80874C11.9188 6.59249 10.4988 7.75624 8.87 8.08499C5.8225 8.70124 3.24 10.5187 1.59875 13.205C-1.05875 17.5562 -0.317498 23.2987 3.36125 26.8612C5.445 28.8787 8.1875 29.9912 11.0825 29.9912C21.3325 29.9912 29.9925 20.4312 29.9925 9.11249C29.9925 5.98249 28.3925 3.09249 25.7113 1.37999L25.71 1.38124ZM9.375 20C8.34 20 7.5 19.16 7.5 18.125C7.5 17.09 8.34 16.25 9.375 16.25C10.41 16.25 11.25 17.09 11.25 18.125C11.25 19.16 10.41 20 9.375 20ZM20.625 18.75C19.59 18.75 18.75 17.91 18.75 16.875C18.75 15.84 19.59 15 20.625 15C21.66 15 22.5 15.84 22.5 16.875C22.5 17.91 21.66 18.75 20.625 18.75ZM20.625 11.25C19.59 11.25 18.75 10.41 18.75 9.37499C18.75 8.33999 19.59 7.49999 20.625 7.49999C21.66 7.49999 22.5 8.33999 22.5 9.37499C22.5 10.41 21.66 11.25 20.625 11.25Z" fill="black"/>
</g>
<defs>
<clipPath id="clip0_17_135">
<rect width="30" height="30" fill="white"/>
</clipPath>
</defs>
</svg>
