<svg width="50" height="50" viewBox="0 0 50 50" fill="none" xmlns="http://www.w3.org/2000/svg">
<g clip-path="url(#clip0_6_39)">
<path d="M24.9917 0C26.7166 0 28.1149 1.39832 28.1149 3.12322V13.534C28.1149 15.2589 26.7166 16.6572 24.9917 16.6572C23.2668 16.6572 21.8685 15.2589 21.8685 13.534V3.12322C21.8685 1.39832 23.2667 0 24.9917 0Z" fill="black"/>
<path d="M32.2792 10.2858C32.2638 11.3343 32.7924 12.3159 33.6763 12.8802C41.5265 17.6765 44.0021 27.9287 39.2056 35.7788C34.4091 43.6289 24.1571 46.1046 16.3069 41.3082C8.45671 36.5118 5.98117 26.2596 10.7777 18.4094C12.1482 16.1664 14.0301 14.2795 16.2695 12.903C17.1685 12.3388 17.7114 11.3492 17.7042 10.2878C17.709 8.56289 16.3145 7.16076 14.5896 7.15598C13.9972 7.15432 13.4165 7.32122 12.9153 7.63725C2.16996 14.3116 -1.13021 28.4328 5.54402 39.178C12.2182 49.9233 26.3395 53.2235 37.0847 46.5492C47.83 39.875 51.1301 25.7538 44.4559 15.0085C42.5981 12.0176 40.0757 9.49517 37.0847 7.63734C35.621 6.71394 33.6859 7.15198 32.7625 8.61569C32.447 9.1156 32.2796 9.69467 32.2792 10.2858Z" fill="black"/>
</g>
<defs>
<clipPath id="clip0_6_39">
<rect width="50" height="50" fill="white"/>
</clipPath>
</defs>
</svg>
