<svg width="25" height="25" viewBox="0 0 25 25" fill="none" xmlns="http://www.w3.org/2000/svg">
<g clip-path="url(#clip0_17_131)">
<path d="M8.93646 15.625H16.0635L12.5 18.5406L8.93646 15.625ZM17.1052 25L12.5 21.2323L7.89479 25H17.1052ZM14.1448 19.8865L17.7083 22.8021V16.9709L14.1448 19.8865ZM25 11.0886V19.7917C25 22.6636 22.6635 25 19.7917 25V16.6667C19.7917 14.9438 18.3896 13.5417 16.6667 13.5417H8.33333C6.61042 13.5417 5.20833 14.9438 5.20833 16.6667V25C2.33646 25 0 22.6636 0 19.7917V11.0886C0 10.2636 0.241667 9.46357 0.7 8.77711L3.82604 4.08648C4.27604 3.41252 4.90729 2.88752 5.65104 2.56773L10.8583 0.337524C11.901 -0.110392 13.0979 -0.110392 14.1417 0.337524L19.3479 2.56877C20.0927 2.88857 20.724 3.41357 21.1729 4.08752L24.299 8.77711C24.7562 9.46357 25 10.2625 25 11.0886ZM15.625 7.29169C15.625 5.56877 14.2229 4.16669 12.5 4.16669C10.7771 4.16669 9.375 5.56877 9.375 7.29169C9.375 9.01461 10.7771 10.4167 12.5 10.4167C14.2229 10.4167 15.625 9.01461 15.625 7.29169ZM12.5 6.25002C11.926 6.25002 11.4583 6.71773 11.4583 7.29169C11.4583 7.86565 11.926 8.33336 12.5 8.33336C13.074 8.33336 13.5417 7.86565 13.5417 7.29169C13.5417 6.71773 13.074 6.25002 12.5 6.25002ZM7.29167 16.9709V22.8021L10.8552 19.8865L7.29167 16.9709Z" fill="black"/>
</g>
<defs>
<clipPath id="clip0_17_131">
<rect width="25" height="25" fill="white"/>
</clipPath>
</defs>
</svg>
