<svg width="50" height="50" viewBox="0 0 50 50" fill="none" xmlns="http://www.w3.org/2000/svg">
<g clip-path="url(#clip0_18_219)">
<path d="M1.83333 29.3541L9.89583 37.5C10.0895 37.6952 10.3199 37.8502 10.5738 37.956C10.8277 38.0618 11.1 38.1162 11.375 38.1162C11.65 38.1162 11.9223 38.0618 12.1762 37.956C12.4301 37.8502 12.6605 37.6952 12.8542 37.5C13.0494 37.3063 13.2044 37.0759 13.3102 36.822C13.416 36.5681 13.4704 36.2958 13.4704 36.0208C13.4704 35.7458 13.416 35.4735 13.3102 35.2196C13.2044 34.9657 13.0494 34.7353 12.8542 34.5416L5.4375 27.0833H47.9167C48.4692 27.0833 48.9991 26.8638 49.3898 26.4731C49.7805 26.0824 50 25.5525 50 25C50 24.4474 49.7805 23.9175 49.3898 23.5268C48.9991 23.1361 48.4692 22.9166 47.9167 22.9166H5.3125L12.8542 15.375C13.2235 14.9875 13.4296 14.4728 13.4296 13.9375C13.4296 13.4022 13.2235 12.8874 12.8542 12.5C12.6605 12.3047 12.4301 12.1497 12.1762 12.044C11.9223 11.9382 11.65 11.8837 11.375 11.8837C11.1 11.8837 10.8277 11.9382 10.5738 12.044C10.3199 12.1497 10.0895 12.3047 9.89583 12.5L1.83333 20.5208C0.662912 21.6927 0.00549889 23.2812 0.00549889 24.9375C0.00549889 26.5937 0.662912 28.1823 1.83333 29.3541Z" fill="white"/>
</g>
<defs>
<clipPath id="clip0_18_219">
<rect width="50" height="50" fill="white"/>
</clipPath>
</defs>
</svg>
