<svg width="50" height="50" viewBox="0 0 50 50" fill="none" xmlns="http://www.w3.org/2000/svg">
<g clip-path="url(#clip0_236_9)">
<path d="M0 25C0 29.9445 1.46622 34.778 4.21326 38.8893C6.9603 43.0005 10.8648 46.2048 15.4329 48.097C20.0011 49.9892 25.0277 50.4843 29.8773 49.5196C34.7268 48.555 39.1814 46.174 42.6777 42.6777C46.174 39.1814 48.555 34.7268 49.5196 29.8773C50.4843 25.0277 49.9892 20.0011 48.097 15.4329C46.2048 10.8648 43.0005 6.9603 38.8893 4.21326C34.778 1.46622 29.9445 0 25 0C18.3718 0.00716892 12.0171 2.64339 7.33025 7.33025C2.64339 12.0171 0.00716892 18.3718 0 25ZM33.3333 25C33.3349 26.525 32.7775 27.9977 31.7667 29.1396C31.1604 29.8208 30.5708 30.4667 30.1479 30.8896L24.2646 36.875C24.0762 37.0831 23.8477 37.2509 23.5929 37.3685C23.338 37.486 23.062 37.5509 22.7815 37.5591C22.5009 37.5674 22.2216 37.5189 21.9603 37.4165C21.6989 37.3141 21.461 37.16 21.2607 36.9633C21.0604 36.7667 20.9019 36.5316 20.7948 36.2722C20.6876 36.0128 20.6339 35.7344 20.637 35.4538C20.6401 35.1731 20.6999 34.896 20.8127 34.639C20.9256 34.382 21.0892 34.1505 21.2938 33.9583L27.1875 27.9583C27.5771 27.5667 28.1063 26.9833 28.6458 26.3771C28.9815 25.9965 29.1668 25.5065 29.1668 24.999C29.1668 24.4915 28.9815 24.0014 28.6458 23.6208C28.1083 23.0167 27.5792 22.4333 27.2021 22.0542L21.2938 16.0417C21.0892 15.8495 20.9256 15.618 20.8127 15.361C20.6999 15.104 20.6401 14.8269 20.637 14.5462C20.6339 14.2656 20.6876 13.9872 20.7948 13.7278C20.9019 13.4684 21.0604 13.2333 21.2607 13.0367C21.461 12.84 21.6989 12.6859 21.9603 12.5835C22.2216 12.4811 22.5009 12.4326 22.7815 12.4409C23.062 12.4491 23.338 12.514 23.5929 12.6315C23.8477 12.7491 24.0762 12.9169 24.2646 13.125L30.1583 19.1229C30.575 19.5396 31.1583 20.1792 31.7604 20.8583C32.7745 21.9995 33.3343 23.4733 33.3333 25Z" fill="black"/>
</g>
<defs>
<clipPath id="clip0_236_9">
<rect width="50" height="50" fill="white"/>
</clipPath>
</defs>
</svg>
