<svg width="250" height="250" viewBox="0 0 250 250" fill="none" xmlns="http://www.w3.org/2000/svg">
<g clip-path="url(#clip0_17_131)">
<path d="M89.3646 156.25H160.635L125 185.406L89.3646 156.25ZM171.052 250L125 212.323L78.9479 250H171.052ZM141.448 198.865L177.083 228.021V169.708L141.448 198.865ZM250 110.885V197.917C250 226.635 226.635 250 197.917 250V166.667C197.917 149.437 183.896 135.417 166.667 135.417H83.3333C66.1042 135.417 52.0833 149.437 52.0833 166.667V250C23.3646 250 0 226.635 0 197.917V110.885C0 102.635 2.41667 94.6354 7 87.7708L38.2604 40.8646C42.7604 34.125 49.0729 28.875 56.5104 25.6771L108.583 3.375C119.01 -1.10417 130.979 -1.10417 141.417 3.375L193.479 25.6875C200.927 28.8854 207.24 34.1354 211.729 40.875L242.99 87.7708C247.563 94.6354 250 102.625 250 110.885ZM156.25 72.9167C156.25 55.6875 142.229 41.6667 125 41.6667C107.771 41.6667 93.75 55.6875 93.75 72.9167C93.75 90.1458 107.771 104.167 125 104.167C142.229 104.167 156.25 90.1458 156.25 72.9167ZM125 62.5C119.26 62.5 114.583 67.1771 114.583 72.9167C114.583 78.6562 119.26 83.3333 125 83.3333C130.74 83.3333 135.417 78.6562 135.417 72.9167C135.417 67.1771 130.74 62.5 125 62.5ZM72.9167 169.708V228.021L108.552 198.865L72.9167 169.708Z" fill="black"/>
</g>
<defs>
<clipPath id="clip0_17_131">
<rect width="250" height="250" fill="white"/>
</clipPath>
</defs>
</svg>
