<svg width="50" height="50" viewBox="0 0 50 50" fill="none" xmlns="http://www.w3.org/2000/svg">
<g clip-path="url(#clip0_197_39)">
<path d="M25 35.4167C19.25 35.4167 14.5833 30.75 14.5833 25C14.5833 19.25 19.25 14.5833 25 14.5833C30.75 14.5833 35.4167 19.25 35.4167 25C35.4167 30.75 30.75 35.4167 25 35.4167ZM27.0833 8.33333V2.08333C27.0833 0.9375 26.1458 0 25 0C23.8542 0 22.9167 0.9375 22.9167 2.08333V8.33333C22.9167 9.47917 23.8542 10.4167 25 10.4167C26.1458 10.4167 27.0833 9.47917 27.0833 8.33333ZM27.0833 47.9167V41.6667C27.0833 40.5208 26.1458 39.5833 25 39.5833C23.8542 39.5833 22.9167 40.5208 22.9167 41.6667V47.9167C22.9167 49.0625 23.8542 50 25 50C26.1458 50 27.0833 49.0625 27.0833 47.9167ZM10.4167 25C10.4167 23.8542 9.47917 22.9167 8.33333 22.9167H2.08333C0.9375 22.9167 0 23.8542 0 25C0 26.1458 0.9375 27.0833 2.08333 27.0833H8.33333C9.47917 27.0833 10.4167 26.1458 10.4167 25ZM50 25C50 23.8542 49.0625 22.9167 47.9167 22.9167H41.6667C40.5208 22.9167 39.5833 23.8542 39.5833 25C39.5833 26.1458 40.5208 27.0833 41.6667 27.0833H47.9167C49.0625 27.0833 50 26.1458 50 25ZM13.9792 13.9792C14.7917 13.1667 14.7917 11.8542 13.9792 11.0417L9.8125 6.875C9 6.0625 7.6875 6.0625 6.875 6.875C6.0625 7.6875 6.0625 9 6.875 9.8125L11.0417 13.9792C11.4583 14.3958 11.9792 14.5833 12.5208 14.5833C13.0625 14.5833 13.5833 14.375 14 13.9792H13.9792ZM43.1458 43.1458C43.9583 42.3333 43.9583 41.0208 43.1458 40.2083L38.9792 36.0417C38.1667 35.2292 36.8542 35.2292 36.0417 36.0417C35.2292 36.8542 35.2292 38.1667 36.0417 38.9792L40.2083 43.1458C40.625 43.5625 41.1458 43.75 41.6875 43.75C42.2292 43.75 42.75 43.5417 43.1667 43.1458H43.1458ZM9.8125 43.1458L13.9792 38.9792C14.7917 38.1667 14.7917 36.8542 13.9792 36.0417C13.1667 35.2292 11.8542 35.2292 11.0417 36.0417L6.875 40.2083C6.0625 41.0208 6.0625 42.3333 6.875 43.1458C7.29167 43.5625 7.8125 43.75 8.35417 43.75C8.89583 43.75 9.41667 43.5417 9.83333 43.1458H9.8125ZM38.9792 13.9792L43.1458 9.8125C43.9583 9 43.9583 7.6875 43.1458 6.875C42.3333 6.0625 41.0208 6.0625 40.2083 6.875L36.0417 11.0417C35.2292 11.8542 35.2292 13.1667 36.0417 13.9792C36.4583 14.3958 36.9792 14.5833 37.5208 14.5833C38.0625 14.5833 38.5833 14.375 39 13.9792H38.9792Z" fill="white"/>
</g>
<defs>
<clipPath id="clip0_197_39">
<rect width="50" height="50" fill="white"/>
</clipPath>
</defs>
</svg>
