<svg width="50" height="50" viewBox="0 0 50 50" fill="none" xmlns="http://www.w3.org/2000/svg">
<g clip-path="url(#clip0_18_205)">
<path d="M50 11.4583V28.125C50 34.4417 44.8583 39.5833 38.5417 39.5833H28.125V43.75H34.375C36.1 43.75 37.5 45.15 37.5 46.875C37.5 48.6 36.1 50 34.375 50H15.625C13.9 50 12.5 48.6 12.5 46.875C12.5 45.15 13.9 43.75 15.625 43.75H21.875V39.5833H11.4583C5.14167 39.5833 0 34.4417 0 28.125V11.4583C0 6.22708 3.53542 1.66249 8.59583 0.360408C10.2687 -0.0729248 11.9708 0.935408 12.4021 2.60832C12.8312 4.27916 11.825 5.98333 10.1542 6.41249C7.85417 7.00416 6.25 9.07708 6.25 11.4562V28.1229C6.25 30.9958 8.58542 33.3312 11.4583 33.3312H38.5417C41.4146 33.3312 43.75 30.9958 43.75 28.1229V11.4583C43.75 9.07916 42.1437 7.00624 39.8458 6.41458C38.1729 5.98333 37.1687 4.28124 37.6 2.60832C38.0292 0.937492 39.7417 -0.0708415 41.4042 0.360408C46.4667 1.66249 50 6.22708 50 11.4583ZM15.3333 14.5646L15.8042 14.2875C15.6917 13.7083 15.6229 13.1125 15.6229 12.5C15.6229 11.8875 15.6917 11.2917 15.8042 10.7125L15.3333 10.4354C13.8458 9.56041 13.3521 7.64374 14.2292 6.15624C15.1062 4.66874 17.0229 4.17499 18.5083 5.04999L19.0125 5.34791C19.8583 4.63957 20.8167 4.07916 21.875 3.70207V3.12708C21.875 1.39999 23.275 0.0020752 25 0.0020752C26.725 0.0020752 28.125 1.39999 28.125 3.12708V3.70207C29.1833 4.07916 30.1417 4.63957 30.9875 5.34791L31.4917 5.04999C32.9812 4.17499 34.8979 4.66874 35.7708 6.15624C36.6479 7.64374 36.1542 9.55832 34.6667 10.4354L34.1958 10.7125C34.3083 11.2917 34.3771 11.8875 34.3771 12.5C34.3771 13.1125 34.3083 13.7083 34.1958 14.2875L34.6667 14.5646C36.1542 15.4396 36.6479 17.3562 35.7708 18.8437C35.1896 19.8333 34.1479 20.3833 33.0771 20.3833C32.5375 20.3833 31.9917 20.2437 31.4917 19.95L30.9875 19.6521C30.1417 20.3604 29.1833 20.9208 28.125 21.2979V21.8729C28.125 23.6 26.725 24.9979 25 24.9979C23.275 24.9979 21.875 23.6 21.875 21.8729V21.2979C20.8167 20.9208 19.8583 20.3604 19.0125 19.6521L18.5083 19.95C18.0104 20.2437 17.4625 20.3833 16.9229 20.3833C15.8521 20.3833 14.8104 19.8333 14.2292 18.8437C13.3521 17.3562 13.8458 15.4417 15.3333 14.5646ZM25 15.625C26.7229 15.625 28.125 14.2229 28.125 12.5C28.125 10.7771 26.7229 9.37499 25 9.37499C23.2771 9.37499 21.875 10.7771 21.875 12.5C21.875 14.2229 23.2771 15.625 25 15.625Z" fill="black"/>
</g>
<defs>
<clipPath id="clip0_18_205">
<rect width="50" height="50" fill="white"/>
</clipPath>
</defs>
</svg>
