<svg width="149" height="154" viewBox="0 0 149 154" fill="none" xmlns="http://www.w3.org/2000/svg">
<g clip-path="url(#clip0_17_174)">
<path d="M74.5 100.5C95.0726 100.5 111.75 88.5237 111.75 73.7501C111.75 58.9765 95.0726 47.0001 74.5 47.0001C53.9274 47.0001 37.25 58.9765 37.25 73.7501C37.25 88.5237 53.9274 100.5 74.5 100.5Z" fill="black"/>
<path d="M74.5 109.417C43.6553 109.442 18.6593 127.392 18.625 149.542C18.625 152.004 21.4045 154 24.8332 154H124.166C127.595 154 130.375 152.004 130.375 149.542C130.341 127.392 105.345 109.441 74.5 109.417Z" fill="black"/>
</g>
<g clip-path="url(#clip1_17_174)">
<path d="M95.2336 23.4274C95.6567 22.3516 94.9809 21.0776 93.7251 20.5836C92.4693 20.0896 91.1157 20.5586 90.6888 21.6306C90.6888 21.6306 89.0822 25.6546 87.9055 28.6461C86.7763 31.5167 85.3908 34.0704 83.7943 36.3792C76.1949 25.3042 64.1807 9.89121 57.5278 12.198C54.55 13.2297 53.5335 15.8139 52.793 17.7032C52.5277 18.3774 52.0839 19.5058 51.8356 19.676C51.4603 19.7218 50.1757 19.2075 49.4052 18.9022C47.2242 18.0352 44.2387 16.8361 41.2517 17.871C36.236 19.6088 38.1327 30.0675 41.37 40.2839C49.0937 42.7281 56.1541 42.7847 62.858 40.462C65.7962 39.444 68.4207 38.0347 70.6645 36.2709C71.6044 35.5312 73.1273 35.6802 74.0596 36.6028C74.9934 37.5282 74.9854 38.8775 74.0432 39.6163C71.4346 41.6664 68.3893 43.3039 64.9917 44.4811C58.1358 46.8566 50.7526 47.0262 42.9784 45.0641C43.573 46.7382 44.1784 48.3648 44.7727 49.8993C41.6006 49.2411 38.3544 48.2905 35.0033 46.9722C31.5111 45.5985 26.797 43.7644 26.797 43.7644C25.5435 43.278 24.1869 43.7481 23.7645 44.8219C23.3421 45.8957 24.0171 47.1716 25.2729 47.6656C25.2775 47.6674 25.282 47.6692 25.282 47.6692C25.282 47.6692 29.9839 49.5008 33.4693 50.8718C46.2893 55.9148 58.3668 56.5408 69.3655 52.7299C80.3642 48.9191 88.1305 41.4177 92.4503 30.4361C93.6239 27.4525 95.2275 23.4362 95.2275 23.4362L95.2305 23.4284L95.2336 23.4274Z" fill="black"/>
</g>
<defs>
<clipPath id="clip0_17_174">
<rect width="149" height="107" fill="white" transform="translate(0 47.0001)"/>
</clipPath>
<clipPath id="clip1_17_174">
<rect width="58.6742" height="50.2601" fill="white" transform="translate(41.3984) rotate(21.4731)"/>
</clipPath>
</defs>
</svg>
