<svg width="149" height="149" viewBox="0 0 149 149" fill="none" xmlns="http://www.w3.org/2000/svg">
<path d="M74.5 95.5C95.0726 95.5 111.75 83.5236 111.75 68.75C111.75 53.9764 95.0726 42 74.5 42C53.9274 42 37.25 53.9764 37.25 68.75C37.25 83.5236 53.9274 95.5 74.5 95.5Z" fill="white"/>
<path d="M74.5 104.417C43.6553 104.441 18.6593 122.391 18.625 144.542C18.625 147.004 21.4045 149 24.8332 149H124.166C127.595 149 130.375 147.004 130.375 144.542C130.341 122.391 105.345 104.441 74.5 104.417Z" fill="white"/>
<g clip-path="url(#clip0_17_175)">
<path d="M94.312 23.2691C94.6918 22.3078 93.9831 21.1257 92.7299 20.6305C91.4768 20.1354 90.1603 20.5113 89.7766 21.4691C89.7766 21.4691 88.3324 25.0645 87.2761 27.7378C86.2625 30.3033 84.9858 32.5714 83.493 34.6092C75.6337 24.2694 63.2804 9.82635 56.8098 11.6753C53.9136 12.5022 53.0012 14.8116 52.3366 16.5002C52.0986 17.1028 51.7001 18.1112 51.4616 18.2565C51.0937 18.2843 49.8115 17.7696 49.0426 17.4638C46.8659 16.5958 43.8859 15.3962 40.9808 16.2256C36.1025 17.6184 38.3268 27.1876 41.8625 36.5862C49.5494 39.0918 56.5018 39.4045 63.022 37.5429C65.8798 36.727 68.4153 35.5441 70.564 34.0252C71.4639 33.3881 72.9682 33.5798 73.9175 34.4522C74.8683 35.3272 74.9065 36.5524 74.0042 37.1886C71.5062 38.954 68.5642 40.3287 65.2597 41.2721C58.5917 43.1759 51.3292 43.0569 43.6091 40.9872C44.2515 42.5297 44.903 44.0295 45.5405 45.4451C42.3953 44.73 39.1672 43.7465 35.8232 42.4252C32.3385 41.0484 27.6352 39.2082 27.6352 39.2082C26.3845 38.7201 25.0651 39.0968 24.686 40.0564C24.3068 41.0161 25.0149 42.1999 26.268 42.695C26.2726 42.6968 26.2771 42.6986 26.2771 42.6986C26.2771 42.6986 30.9683 44.5361 34.4463 45.9102C47.2389 50.9647 59.1497 51.98 69.8471 48.9258C80.5444 45.8716 87.9337 39.3458 91.8113 29.5317C92.8648 26.8653 94.3063 23.2769 94.3063 23.2769L94.309 23.27L94.312 23.2691Z" fill="white"/>
</g>
<defs>
<clipPath id="clip0_17_175">
<rect width="58.5836" height="44.9433" fill="white" transform="translate(40.5151) rotate(21.5594)"/>
</clipPath>
</defs>
</svg>
