<svg width="25" height="28" viewBox="0 0 25 28" fill="none" xmlns="http://www.w3.org/2000/svg">
<path d="M22.5252 6.4144C21.4878 5.85115 20.1472 5.8549 19.1099 6.42265C18.6312 6.68439 18.2564 7.02789 17.9972 7.44264C17.6613 7.97777 17.1605 8.32689 16.5861 8.42551C15.5113 8.61039 14.6005 9.15564 14.0217 9.96151C13.0844 11.2669 13.3458 12.9896 14.6433 14.0584C15.3782 14.6636 16.3454 14.9974 17.3664 14.9974C20.9813 14.9974 24.0355 12.1294 24.0355 8.73376C24.0355 7.79477 23.4712 6.92777 22.5256 6.41402L22.5252 6.4144ZM17.3659 14.2474C16.575 14.2474 15.8261 13.989 15.256 13.5195C14.2527 12.693 14.0499 11.361 14.7738 10.3526C15.2234 9.72714 15.9288 9.30376 16.7606 9.16051C17.5974 9.01689 18.3129 8.53201 18.7749 7.79552C18.9631 7.49514 19.236 7.24539 19.5869 7.05339C19.9585 6.85014 20.3932 6.74852 20.8275 6.74852C21.2568 6.74852 21.6849 6.84789 22.0504 7.04627C22.7509 7.42689 23.1529 8.04189 23.1529 8.73376C23.1529 11.7221 20.503 14.2474 17.3659 14.2474ZM21.3931 8.81251C21.3931 9.12301 21.0968 9.37501 20.7318 9.37501C20.3668 9.37501 20.0705 9.12301 20.0705 8.81251C20.0705 8.50201 20.3668 8.25002 20.7318 8.25002C21.0968 8.25002 21.3931 8.50201 21.3931 8.81251ZM17.4254 11.4375C17.4254 11.748 17.1292 12 16.7642 12C16.3992 12 16.1029 11.748 16.1029 11.4375C16.1029 11.127 16.3992 10.875 16.7642 10.875C17.1292 10.875 17.4254 11.127 17.4254 11.4375ZM21.3931 11.0625C21.3931 11.373 21.0968 11.625 20.7318 11.625C20.3668 11.625 20.0705 11.373 20.0705 11.0625C20.0705 10.752 20.3668 10.5 20.7318 10.5C21.0968 10.5 21.3931 10.752 21.3931 11.0625Z" fill="#747474"/>
<g clip-path="url(#clip0_138_33)">
<path d="M17.9795 3.44751C17.1738 2.56512 15.9043 2.11691 14.746 2.30447C14.2115 2.39076 13.7499 2.58944 13.3754 2.89445C12.8908 3.28749 12.3082 3.44901 11.734 3.34874C10.6596 3.16146 9.62803 3.37037 8.82921 3.93768C7.53561 4.85676 7.24585 6.5746 8.14004 8.02284C8.64657 8.84306 9.45752 9.48472 10.4234 9.82877C13.8432 11.0469 17.6266 9.36292 18.6852 6.15062C18.9779 5.26231 18.7144 4.25197 17.98 3.4473L17.9795 3.44751ZM10.6568 9.11911C9.90862 8.8526 9.2806 8.35578 8.88773 7.71955C8.19619 6.59956 8.4196 5.27114 9.41876 4.56113C10.0391 4.12092 10.8384 3.95809 11.67 4.10289C12.5064 4.24897 13.3344 4.03138 14.0011 3.49032C14.2728 3.2696 14.6088 3.12529 15.0006 3.0619C15.4156 2.99485 15.8585 3.04519 16.2693 3.19151C16.6755 3.33621 17.0494 3.57446 17.3333 3.88528C17.8774 4.48141 18.066 5.19869 17.8503 5.85321C16.9186 8.68025 13.6245 10.1762 10.6568 9.11911ZM16.1609 5.33468C16.0641 5.62842 15.7053 5.76699 15.3599 5.64398C15.0146 5.52098 14.8129 5.18276 14.9097 4.88902C15.0065 4.59528 15.3653 4.45672 15.7107 4.57972C16.056 4.70272 16.2577 5.04094 16.1609 5.33468ZM11.5891 6.48098C11.4923 6.77472 11.1335 6.91329 10.7882 6.79029C10.4428 6.66728 10.2411 6.32906 10.3379 6.03532C10.4347 5.74158 10.7936 5.60302 11.1389 5.72602C11.4842 5.84902 11.6859 6.18725 11.5891 6.48098ZM15.4594 7.46321C15.3626 7.75695 15.0038 7.89552 14.6585 7.77252C14.3132 7.64951 14.1115 7.31129 14.2083 7.01755C14.3051 6.72381 14.6639 6.58525 15.0092 6.70825C15.3545 6.83125 15.5562 7.16948 15.4594 7.46321Z" fill="#747474"/>
</g>
<g clip-path="url(#clip1_138_33)">
<path d="M1.4546 12.9033C1.96889 13.9962 3.05073 14.8194 4.20986 15.0014C4.74468 15.0856 5.24231 15.0399 5.68755 14.8656C6.2632 14.6417 6.86558 14.6691 7.38444 14.9437C8.35545 15.4572 9.39985 15.5793 10.3255 15.287C11.8246 14.8133 12.5963 13.2647 12.1607 11.6044C11.9139 10.6641 11.3252 9.79922 10.5029 9.17001C7.59154 6.94222 3.49659 7.36983 1.56059 10.1046C1.02522 10.8608 0.985364 11.9068 1.45403 12.9034L1.4546 12.9033ZM10.0757 9.77431C10.7126 10.2617 11.1685 10.9314 11.3599 11.6608C11.6968 12.9448 11.1007 14.1425 9.94279 14.5085C9.22401 14.7352 8.41455 14.6415 7.6629 14.2442C6.90713 13.8442 6.05444 13.7938 5.26244 14.1022C4.93957 14.2281 4.5774 14.2611 4.18532 14.1995C3.77013 14.1341 3.36211 13.9481 3.01239 13.6805C2.66657 13.4159 2.37848 13.072 2.19725 12.687C1.85009 11.9488 1.87692 11.2057 2.27139 10.6485C3.9752 8.24172 7.54916 7.84103 10.0757 9.77431ZM3.73364 11.6696C3.91067 11.4195 4.29294 11.3992 4.58692 11.6241C4.8809 11.8491 4.97582 12.2346 4.79879 12.4847C4.62176 12.7347 4.23949 12.7551 3.94551 12.5302C3.65153 12.3052 3.55661 11.9197 3.73364 11.6696ZM8.42571 12.0006C8.60274 11.7506 8.98501 11.7302 9.27899 11.9551C9.57297 12.1801 9.66788 12.5656 9.49085 12.8157C9.31382 13.0658 8.93155 13.0861 8.63757 12.8612C8.34359 12.6362 8.24868 12.2507 8.42571 12.0006ZM5.01647 9.85752C5.1935 9.60745 5.57577 9.58707 5.86975 9.81202C6.16373 10.037 6.25865 10.4225 6.08162 10.6726C5.90458 10.9226 5.52232 10.943 5.22834 10.7181C4.93436 10.4931 4.83944 10.1076 5.01647 9.85752Z" fill="#747474"/>
</g>
<path fill-rule="evenodd" clip-rule="evenodd" d="M2.51686 13.8022C1.58507 14.3334 0.953857 15.3647 0.953857 16.5417V22.7917C0.953857 25.6667 3.19817 28 5.96348 28H19.9904C22.7557 28 25 25.6667 25 22.7917V16.5417C25 15.3647 24.3688 14.3334 23.437 13.8022C23.25 13.6737 22.5593 13.4167 21.2929 13.4167H14.58H12.2756H4.66098C3.77928 13.4167 2.86419 13.6737 2.51686 13.8022ZM19.9904 25.9167C21.6436 25.9167 22.9962 24.5105 22.9962 22.7917V16.5417C22.9962 15.9688 22.5453 15.5001 21.9943 15.5001H3.95963C3.40857 15.5001 2.95771 15.9688 2.95771 16.5417V17.5834H19.9904C20.5415 17.5834 20.9923 18.0522 20.9923 18.6251C20.9923 19.198 20.5415 19.6667 19.9904 19.6667H2.95771V21.7501H19.9904C20.5415 21.7501 20.9923 22.2188 20.9923 22.7917C20.9923 23.3646 20.5415 23.8334 19.9904 23.8334H3.12803C3.53882 25.0417 4.66098 25.9167 5.96348 25.9167H19.9904Z" fill="#747474"/>
<defs>
<clipPath id="clip0_138_33">
<rect width="10.6252" height="8.96452" fill="white" transform="matrix(0.942022 0.335551 -0.312986 0.949758 9.53064 0)"/>
</clipPath>
<clipPath id="clip1_138_33">
<rect width="10.7296" height="8.88085" fill="white" transform="matrix(-0.79417 -0.607696 0.577796 -0.816182 8.52112 18.825)"/>
</clipPath>
</defs>
</svg>
