<svg width="25" height="28" viewBox="0 0 25 28" fill="none" xmlns="http://www.w3.org/2000/svg">
<path d="M22.5252 6.4144C21.4879 5.85115 20.1473 5.8549 19.1099 6.42265C18.6312 6.68439 18.2565 7.02789 17.9973 7.44264C17.6613 7.97777 17.1605 8.32689 16.5861 8.42551C15.5113 8.61039 14.6005 9.15564 14.0217 9.96151C13.0845 11.2669 13.3459 12.9896 14.6433 14.0584C15.3782 14.6636 16.3454 14.9974 17.3664 14.9974C20.9813 14.9974 24.0355 12.1294 24.0355 8.73376C24.0355 7.79477 23.4712 6.92777 22.5256 6.41402L22.5252 6.4144ZM17.366 14.2474C16.5751 14.2474 15.8261 13.989 15.2561 13.5195C14.2527 12.693 14.0499 11.361 14.7738 10.3526C15.2234 9.72714 15.9288 9.30376 16.7607 9.16051C17.5974 9.01689 18.3129 8.53201 18.7749 7.79552C18.9631 7.49514 19.236 7.24539 19.5869 7.05339C19.9586 6.85014 20.3933 6.74852 20.8275 6.74852C21.2569 6.74852 21.6849 6.84789 22.0504 7.04627C22.7509 7.42689 23.153 8.04189 23.153 8.73376C23.153 11.7221 20.503 14.2474 17.366 14.2474ZM21.3931 8.81251C21.3931 9.12301 21.0968 9.37501 20.7318 9.37501C20.3668 9.37501 20.0706 9.12301 20.0706 8.81251C20.0706 8.50201 20.3668 8.25002 20.7318 8.25002C21.0968 8.25002 21.3931 8.50201 21.3931 8.81251ZM17.4255 11.4375C17.4255 11.748 17.1292 12 16.7642 12C16.3992 12 16.1029 11.748 16.1029 11.4375C16.1029 11.127 16.3992 10.875 16.7642 10.875C17.1292 10.875 17.4255 11.127 17.4255 11.4375ZM21.3931 11.0625C21.3931 11.373 21.0968 11.625 20.7318 11.625C20.3668 11.625 20.0706 11.373 20.0706 11.0625C20.0706 10.752 20.3668 10.5 20.7318 10.5C21.0968 10.5 21.3931 10.752 21.3931 11.0625Z" fill="black"/>
<g clip-path="url(#clip0_17_154)">
<path d="M17.9795 3.44751C17.1738 2.56512 15.9043 2.11691 14.746 2.30447C14.2115 2.39076 13.7499 2.58944 13.3754 2.89445C12.8908 3.28749 12.3082 3.44901 11.734 3.34874C10.6596 3.16146 9.62803 3.37036 8.82921 3.93768C7.53561 4.85676 7.24585 6.5746 8.14004 8.02284C8.64657 8.84306 9.45752 9.48472 10.4234 9.82877C13.8432 11.0469 17.6266 9.36292 18.6852 6.15062C18.9779 5.26231 18.7144 4.25197 17.98 3.4473L17.9795 3.44751ZM10.6568 9.11911C9.90862 8.8526 9.2806 8.35578 8.88773 7.71955C8.19619 6.59956 8.4196 5.27114 9.41876 4.56113C10.0391 4.12092 10.8384 3.95809 11.67 4.10289C12.5064 4.24897 13.3344 4.03138 14.0011 3.49032C14.2728 3.2696 14.6088 3.12529 15.0006 3.0619C15.4156 2.99485 15.8585 3.04519 16.2693 3.19151C16.6755 3.33621 17.0494 3.57446 17.3333 3.88528C17.8774 4.48141 18.066 5.19869 17.8503 5.85321C16.9186 8.68025 13.6245 10.1762 10.6568 9.11911ZM16.1609 5.33468C16.0641 5.62842 15.7053 5.76699 15.3599 5.64398C15.0146 5.52098 14.8129 5.18276 14.9097 4.88902C15.0065 4.59528 15.3653 4.45672 15.7107 4.57972C16.056 4.70272 16.2577 5.04094 16.1609 5.33468ZM11.5891 6.48098C11.4923 6.77472 11.1335 6.91329 10.7882 6.79029C10.4428 6.66728 10.2411 6.32906 10.3379 6.03532C10.4347 5.74158 10.7936 5.60302 11.1389 5.72602C11.4842 5.84902 11.6859 6.18725 11.5891 6.48098ZM15.4594 7.46321C15.3626 7.75695 15.0038 7.89552 14.6585 7.77252C14.3132 7.64951 14.1115 7.31129 14.2083 7.01755C14.3051 6.72381 14.6639 6.58525 15.0092 6.70825C15.3545 6.83125 15.5562 7.16948 15.4594 7.46321Z" fill="black"/>
</g>
<g clip-path="url(#clip1_17_154)">
<path d="M1.45466 12.9033C1.96895 13.9962 3.05079 14.8194 4.20992 15.0014C4.74474 15.0856 5.24237 15.0399 5.68761 14.8656C6.26326 14.6417 6.86564 14.6691 7.3845 14.9437C8.35551 15.4572 9.39992 15.5793 10.3256 15.287C11.8246 14.8133 12.5963 13.2647 12.1608 11.6044C11.914 10.6641 11.3253 9.79922 10.503 9.17001C7.5916 6.94222 3.49665 7.36983 1.56065 10.1046C1.02528 10.8608 0.985425 11.9068 1.45409 12.9034L1.45466 12.9033ZM10.0757 9.77431C10.7127 10.2617 11.1686 10.9314 11.36 11.6608C11.6969 12.9448 11.1008 14.1425 9.94285 14.5085C9.22407 14.7352 8.41461 14.6415 7.66296 14.2442C6.90719 13.8442 6.0545 13.7938 5.2625 14.1022C4.93963 14.2281 4.57746 14.2611 4.18538 14.1995C3.77019 14.1341 3.36217 13.9481 3.01245 13.6805C2.66663 13.4159 2.37854 13.072 2.19731 12.687C1.85015 11.9488 1.87698 11.2057 2.27145 10.6485C3.97526 8.24172 7.54922 7.84103 10.0757 9.77431ZM3.7337 11.6696C3.91073 11.4195 4.293 11.3992 4.58698 11.6241C4.88096 11.8491 4.97588 12.2346 4.79885 12.4847C4.62182 12.7347 4.23955 12.7551 3.94557 12.5302C3.65159 12.3052 3.55667 11.9197 3.7337 11.6696ZM8.42577 12.0006C8.6028 11.7506 8.98507 11.7302 9.27905 11.9551C9.57303 12.1801 9.66794 12.5656 9.49091 12.8157C9.31388 13.0658 8.93161 13.0861 8.63763 12.8612C8.34365 12.6362 8.24874 12.2507 8.42577 12.0006ZM5.01653 9.85752C5.19356 9.60745 5.57583 9.58707 5.86981 9.81202C6.16379 10.037 6.25871 10.4225 6.08168 10.6726C5.90465 10.9226 5.52238 10.943 5.2284 10.7181C4.93442 10.4931 4.8395 10.1076 5.01653 9.85752Z" fill="black"/>
</g>
<path fill-rule="evenodd" clip-rule="evenodd" d="M2.51683 13.8022C1.58504 14.3334 0.953827 15.3647 0.953827 16.5417V22.7917C0.953827 25.6667 3.19814 28 5.96345 28H19.9904C22.7557 28 25 25.6667 25 22.7917V16.5417C25 15.3647 24.3688 14.3334 23.437 13.8022C23.25 13.6737 22.5593 13.4167 21.2929 13.4167H14.58H12.2756H4.66094C3.77925 13.4167 2.86416 13.6737 2.51683 13.8022ZM19.9904 25.9167C21.6436 25.9167 22.9961 24.5105 22.9961 22.7917V16.5417C22.9961 15.9688 22.5453 15.5001 21.9942 15.5001H3.9596C3.40854 15.5001 2.95767 15.9688 2.95767 16.5417V17.5834H19.9904C20.5414 17.5834 20.9923 18.0522 20.9923 18.6251C20.9923 19.198 20.5414 19.6667 19.9904 19.6667H2.95767V21.7501H19.9904C20.5414 21.7501 20.9923 22.2188 20.9923 22.7917C20.9923 23.3646 20.5414 23.8334 19.9904 23.8334H3.128C3.53879 25.0417 4.66094 25.9167 5.96345 25.9167H19.9904Z" fill="black"/>
<defs>
<clipPath id="clip0_17_154">
<rect width="10.6252" height="8.96452" fill="white" transform="matrix(0.942022 0.335551 -0.312986 0.949758 9.53067 0)"/>
</clipPath>
<clipPath id="clip1_17_154">
<rect width="10.7296" height="8.88085" fill="white" transform="matrix(-0.79417 -0.607696 0.577796 -0.816182 8.52115 18.825)"/>
</clipPath>
</defs>
</svg>
