<svg width="35" height="35" viewBox="0 0 35 35" fill="none" xmlns="http://www.w3.org/2000/svg">
<g clip-path="url(#clip0_13_68)">
<path d="M33.4323 8.30521C32.4654 7.82104 31.3279 7.92312 30.4617 8.57208L27.6267 11.3167C27.0958 7.40396 23.7417 4.375 19.6875 4.375H8.02083C3.59771 4.375 0 7.97417 0 12.3958V22.6042C0 27.0258 3.59771 30.625 8.02083 30.625H19.6875C23.73 30.625 27.0769 27.6135 27.6223 23.7183L30.4617 26.4104C30.9663 26.7867 31.5598 26.9806 32.1606 26.9806C32.6492 26.9806 33.1406 26.8538 33.5898 26.5942C34.5085 26.0633 35 25.0075 35 23.9458V10.8413C35 9.76063 34.3992 8.78792 33.4323 8.30521ZM23.3333 22.6042C23.3333 24.6152 21.6985 26.25 19.6875 26.25H8.02083C6.01125 26.25 4.375 24.6152 4.375 22.6042V12.3958C4.375 10.3848 6.01125 8.75 8.02083 8.75H19.6875C21.6985 8.75 23.3333 10.3848 23.3333 12.3958V22.6042Z" fill="black"/>
</g>
<defs>
<clipPath id="clip0_13_68">
<rect width="35" height="35" fill="white"/>
</clipPath>
</defs>
</svg>
