<svg width="62" height="47" viewBox="0 0 62 47" fill="none" xmlns="http://www.w3.org/2000/svg">
<path d="M25.8308 41.7778C25.8308 38.9056 28.1569 36.5556 31 36.5556C33.8431 36.5556 36.1692 38.9056 36.1692 41.7778C36.1692 44.65 33.8431 47 31 47C28.1569 47 25.8308 44.65 25.8308 41.7778ZM47.438 30.7067C48.9629 29.1661 48.9629 26.6856 47.438 25.1711C38.3661 16.0061 23.6081 16.0061 14.5361 25.1711C13.0112 26.7117 13.0112 29.1922 14.5361 30.7067C16.061 32.2211 18.5164 32.2472 20.0155 30.7067C26.0634 24.5967 35.9107 24.5967 41.9587 30.7067C42.7082 31.4639 43.7162 31.8556 44.6984 31.8556C45.6805 31.8556 46.6885 31.4639 47.438 30.7067ZM60.8004 18.5128C62.3511 17.0244 62.4028 14.5439 60.9296 12.9772C60.697 12.7422 60.4644 12.4811 60.2318 12.2461C52.4263 4.36056 42.0362 0 31 0C19.9638 0 9.57371 4.33444 1.76823 12.22C1.53562 12.455 1.303 12.7161 1.07039 12.9511C-0.402828 14.5178 -0.351136 16.9983 1.19962 18.4867C2.75038 19.975 5.20574 19.9228 6.67896 18.3561L7.24757 17.7556C13.6057 11.3322 22.0315 7.80722 31 7.80722C39.9685 7.80722 48.4202 11.3322 54.7783 17.7556L55.3469 18.33C56.0964 19.1394 57.1303 19.5311 58.1382 19.5311C59.0945 19.5311 60.0767 19.1656 60.8262 18.4606L60.8004 18.5128Z" fill="white"/>
</svg>
