<svg width="62" height="62" viewBox="0 0 62 62" fill="none" xmlns="http://www.w3.org/2000/svg">
<path d="M60.8783 60.8635C60.129 61.6125 59.1214 62 58.1396 62C57.1578 62 56.1501 61.6125 55.4009 60.8635L1.14328 6.6191C-0.381095 5.09509 -0.381095 2.66701 1.14328 1.14301C2.66766 -0.381002 5.09634 -0.381002 6.62072 1.14301L16.0254 10.5454C31.1658 4.6818 48.6574 8.29809 60.2324 19.8444C60.4649 20.0769 60.6974 20.3093 60.93 20.5676C62.4027 22.1175 62.351 24.5714 60.8008 26.0437C60.0515 26.767 59.0956 27.1286 58.1138 27.1286C57.0803 27.1286 56.0726 26.7153 55.2975 25.9404L54.7291 25.3721C46.1512 16.7964 33.5945 13.6192 22.1229 16.7189L31.295 25.8888C37.3408 25.9921 43.1283 28.3943 47.4173 32.6822C48.9416 34.1804 48.9416 36.6601 47.4173 38.1583C46.668 38.9074 45.6862 39.2949 44.7044 39.2949L60.8266 55.4132C62.351 56.9372 62.351 59.3911 60.8266 60.8893L60.8783 60.8635ZM31.0108 43.9186C28.1687 43.9186 25.8434 46.2433 25.8434 49.0847C25.8434 51.9261 28.1687 54.2508 31.0108 54.2508C33.8529 54.2508 36.1782 51.9261 36.1782 49.0847C36.1782 46.2433 33.8529 43.9186 31.0108 43.9186ZM15.5086 31.7523C15.1986 32.0365 14.8885 32.3206 14.5785 32.6306C13.0541 34.1287 13.0541 36.5826 14.5785 38.1067C15.3278 38.8557 16.3354 39.2432 17.3172 39.2432C18.299 39.2432 19.3067 38.8557 20.0559 38.1067C20.2626 37.9 20.4693 37.6934 20.676 37.5126C22.2779 36.0919 22.4071 33.638 20.9861 32.0365C19.565 30.435 17.1105 30.3058 15.5086 31.7265V31.7523ZM2.51264 19.147C2.25427 19.3794 2.02174 19.6119 1.78921 19.8444C1.55668 20.0769 1.32414 20.3352 1.09161 20.5676C-0.381095 22.1175 -0.329421 24.5714 1.2208 26.0437C1.97007 26.767 2.92603 27.1286 3.90784 27.1286C4.94132 27.1286 5.94896 26.7153 6.72407 25.9404L7.88673 24.778C9.43694 23.3057 9.51446 20.8518 8.04175 19.3019C6.56904 17.7521 4.11453 17.6746 2.56432 19.147H2.51264Z" fill="#474747"/>
<path d="M58 58L4 4" stroke="#9E0000" stroke-width="8" stroke-linecap="round"/>
</svg>
